<?xml version="1.0" encoding="UTF-8" standalone="no"?>
<!DOCTYPE svg PUBLIC "-//W3C//DTD SVG 1.1//EN"
 "http://www.w3.org/Graphics/SVG/1.1/DTD/svg11.dtd">
<!-- Generated by graphviz version 2.40.1 (20161225.0304)
 -->
<!-- Title: G Pages: 1 -->
<svg width="1176pt" height="2762pt"
 viewBox="0.00 0.00 1175.69 2762.00" xmlns="http://www.w3.org/2000/svg" xmlns:xlink="http://www.w3.org/1999/xlink">
<g id="graph0" class="graph" transform="scale(1 1) rotate(0) translate(4 2758)">
<title>G</title>
<polygon fill="#ffffff" stroke="transparent" points="-4,4 -4,-2758 1171.6886,-2758 1171.6886,4 -4,4"/>
<g id="clust1" class="cluster">
<title>cluster_run0</title>
<polygon fill="none" stroke="#000000" points="605.0519,-1360 605.0519,-1435 737.0519,-1435 737.0519,-1360 605.0519,-1360"/>
<text text-anchor="middle" x="671.0519" y="-1419.8" font-family="Times,serif" font-size="14.00" fill="#000000">run0</text>
</g>
<!-- prog0 -->
<g id="node1" class="node">
<title>prog0</title>
<path fill="#000000" stroke="#000000" d="M717.0519,-1404C717.0519,-1404 625.0519,-1404 625.0519,-1404 619.0519,-1404 613.0519,-1398 613.0519,-1392 613.0519,-1392 613.0519,-1380 613.0519,-1380 613.0519,-1374 619.0519,-1368 625.0519,-1368 625.0519,-1368 717.0519,-1368 717.0519,-1368 723.0519,-1368 729.0519,-1374 729.0519,-1380 729.0519,-1380 729.0519,-1392 729.0519,-1392 729.0519,-1398 723.0519,-1404 717.0519,-1404"/>
<text text-anchor="middle" x="671.0519" y="-1382.3" font-family="Times,serif" font-size="14.00" fill="#ffffff">/usr/bin/gs (1)</text>
</g>
<!-- /home/andy/pdf/lorem&#45;ipsum&#45;001.png -->
<g id="node46" class="node">
<title>/home/andy/pdf/lorem&#45;ipsum&#45;001.png</title>
<ellipse fill="#a3b4e0" stroke="#000000" cx="966.8702" cy="-1422" rx="200.6368" ry="26.7407"/>
<text text-anchor="middle" x="966.8702" y="-1425.8" font-family="Times,serif" font-size="14.00" fill="#131c39">lorem&#45;ipsum&#45;001.png</text>
<text text-anchor="middle" x="966.8702" y="-1410.8" font-family="Times,serif" font-size="14.00" fill="#131c39">/home/andy/pdf/lorem&#45;ipsum&#45;001.png</text>
</g>
<!-- prog0&#45;&gt;/home/andy/pdf/lorem&#45;ipsum&#45;001.png -->
<g id="edge52" class="edge">
<title>prog0&#45;&gt;/home/andy/pdf/lorem&#45;ipsum&#45;001.png</title>
<path fill="none" stroke="#000088" d="M729.1431,-1393.0695C752.172,-1395.872 779.876,-1399.2435 808.1101,-1402.6795"/>
<polygon fill="#000088" stroke="#000088" points="807.7626,-1406.1629 818.1122,-1403.8967 808.6083,-1399.2142 807.7626,-1406.1629"/>
</g>
<!-- /home/andy/pdf/lorem&#45;ipsum&#45;002.png -->
<g id="node47" class="node">
<title>/home/andy/pdf/lorem&#45;ipsum&#45;002.png</title>
<ellipse fill="#a3b4e0" stroke="#000000" cx="966.8702" cy="-1350" rx="200.6368" ry="26.7407"/>
<text text-anchor="middle" x="966.8702" y="-1353.8" font-family="Times,serif" font-size="14.00" fill="#131c39">lorem&#45;ipsum&#45;002.png</text>
<text text-anchor="middle" x="966.8702" y="-1338.8" font-family="Times,serif" font-size="14.00" fill="#131c39">/home/andy/pdf/lorem&#45;ipsum&#45;002.png</text>
</g>
<!-- prog0&#45;&gt;/home/andy/pdf/lorem&#45;ipsum&#45;002.png -->
<g id="edge53" class="edge">
<title>prog0&#45;&gt;/home/andy/pdf/lorem&#45;ipsum&#45;002.png</title>
<path fill="none" stroke="#000088" d="M729.1431,-1378.9305C752.172,-1376.128 779.876,-1372.7565 808.1101,-1369.3205"/>
<polygon fill="#000088" stroke="#000088" points="808.6083,-1372.7858 818.1122,-1368.1033 807.7626,-1365.8371 808.6083,-1372.7858"/>
</g>
<!-- pkg ghostscript -->
<g id="node2" class="node">
<title>pkg ghostscript</title>
<path fill="#c9d2ed" stroke="#000000" d="M428.526,-2754C428.526,-2754 113.526,-2754 113.526,-2754 107.526,-2754 101.526,-2748 101.526,-2742 101.526,-2742 101.526,-2730 101.526,-2730 101.526,-2724 107.526,-2718 113.526,-2718 113.526,-2718 428.526,-2718 428.526,-2718 434.526,-2718 440.526,-2724 440.526,-2730 440.526,-2730 440.526,-2742 440.526,-2742 440.526,-2748 434.526,-2754 428.526,-2754"/>
<text text-anchor="middle" x="271.026" y="-2732.3" font-family="Times,serif" font-size="14.00" fill="#131c39">ghostscript 9.26~dfsg+0&#45;0ubuntu0.18.04.13</text>
</g>
<!-- pkg ghostscript&#45;&gt;prog0 -->
<g id="edge1" class="edge">
<title>pkg ghostscript&#45;&gt;prog0</title>
<path fill="none" stroke="#000000" stroke-width="2" d="M440.7165,-2743.8662C476.3842,-2738.9635 512.2012,-2728.583 542.0519,-2709 582.4777,-2682.4795 581.4422,-2660.3935 595.0519,-2614 629.8556,-2495.3588 663.8719,-1586.8241 670.0558,-1414.2528"/>
<polygon fill="#000000" stroke="#000000" stroke-width="2" points="673.5563,-1414.2987 670.415,-1404.1803 666.5607,-1414.0491 673.5563,-1414.2987"/>
<text text-anchor="middle" x="577.5519" y="-2697.8" font-family="Times,serif" font-size="14.00" fill="#000000">gs ...</text>
</g>
<!-- pkg libavahi&#45;client3 -->
<g id="node3" class="node">
<title>pkg libavahi&#45;client3</title>
<path fill="#c9d2ed" stroke="#000000" d="M386.026,-2700C386.026,-2700 156.026,-2700 156.026,-2700 150.026,-2700 144.026,-2694 144.026,-2688 144.026,-2688 144.026,-2676 144.026,-2676 144.026,-2670 150.026,-2664 156.026,-2664 156.026,-2664 386.026,-2664 386.026,-2664 392.026,-2664 398.026,-2670 398.026,-2676 398.026,-2676 398.026,-2688 398.026,-2688 398.026,-2694 392.026,-2700 386.026,-2700"/>
<text text-anchor="middle" x="271.026" y="-2678.3" font-family="Times,serif" font-size="14.00" fill="#131c39">libavahi&#45;client3 0.7&#45;3.1ubuntu1.2</text>
</g>
<!-- pkg libavahi&#45;client3&#45;&gt;prog0 -->
<g id="edge23" class="edge">
<title>pkg libavahi&#45;client3&#45;&gt;prog0</title>
<path fill="none" stroke="#8888cc" d="M398.3096,-2693.3608C446.7254,-2691.8044 500.2411,-2682.4291 542.0519,-2655 582.4777,-2628.4795 581.3765,-2606.3742 595.0519,-2560 661.2715,-2335.4453 669.8377,-1571.6134 670.9049,-1414.425"/>
<polygon fill="#8888cc" stroke="#8888cc" points="674.4064,-1414.1934 670.9695,-1404.1715 667.4065,-1414.1493 674.4064,-1414.1934"/>
</g>
<!-- pkg libavahi&#45;common3 -->
<g id="node4" class="node">
<title>pkg libavahi&#45;common3</title>
<path fill="#c9d2ed" stroke="#000000" d="M396.526,-2646C396.526,-2646 145.526,-2646 145.526,-2646 139.526,-2646 133.526,-2640 133.526,-2634 133.526,-2634 133.526,-2622 133.526,-2622 133.526,-2616 139.526,-2610 145.526,-2610 145.526,-2610 396.526,-2610 396.526,-2610 402.526,-2610 408.526,-2616 408.526,-2622 408.526,-2622 408.526,-2634 408.526,-2634 408.526,-2640 402.526,-2646 396.526,-2646"/>
<text text-anchor="middle" x="271.026" y="-2624.3" font-family="Times,serif" font-size="14.00" fill="#131c39">libavahi&#45;common3 0.7&#45;3.1ubuntu1.2</text>
</g>
<!-- pkg libavahi&#45;common3&#45;&gt;prog0 -->
<g id="edge22" class="edge">
<title>pkg libavahi&#45;common3&#45;&gt;prog0</title>
<path fill="none" stroke="#8888cc" d="M408.6818,-2638.908C454.2574,-2636.3837 503.2064,-2626.4838 542.0519,-2601 582.4777,-2574.4795 581.3044,-2552.3529 595.0519,-2506 658.3728,-2292.4982 669.206,-1567.6408 670.8017,-1414.5435"/>
<polygon fill="#8888cc" stroke="#8888cc" points="674.3055,-1414.1751 670.9049,-1404.1408 667.3058,-1414.1056 674.3055,-1414.1751"/>
</g>
<!-- pkg libc6 -->
<g id="node5" class="node">
<title>pkg libc6</title>
<path fill="#c9d2ed" stroke="#000000" d="M346.526,-2592C346.526,-2592 195.526,-2592 195.526,-2592 189.526,-2592 183.526,-2586 183.526,-2580 183.526,-2580 183.526,-2568 183.526,-2568 183.526,-2562 189.526,-2556 195.526,-2556 195.526,-2556 346.526,-2556 346.526,-2556 352.526,-2556 358.526,-2562 358.526,-2568 358.526,-2568 358.526,-2580 358.526,-2580 358.526,-2586 352.526,-2592 346.526,-2592"/>
<text text-anchor="middle" x="271.026" y="-2570.3" font-family="Times,serif" font-size="14.00" fill="#131c39">libc6 2.27&#45;3ubuntu1.2</text>
</g>
<!-- pkg libc6&#45;&gt;prog0 -->
<g id="edge2" class="edge">
<title>pkg libc6&#45;&gt;prog0</title>
<path fill="none" stroke="#8888cc" d="M358.7196,-2585.0314C415.4198,-2587.6707 488.3799,-2582.2105 542.0519,-2547 582.4777,-2520.4795 581.2252,-2498.3293 595.0519,-2452 655.5524,-2249.2807 668.573,-1561.8381 670.6953,-1414.1097"/>
<polygon fill="#8888cc" stroke="#8888cc" points="674.1957,-1414.0966 670.8348,-1404.0491 667.1964,-1413.9996 674.1957,-1414.0966"/>
</g>
<!-- pkg libcom&#45;err2 -->
<g id="node6" class="node">
<title>pkg libcom&#45;err2</title>
<path fill="#c9d2ed" stroke="#000000" d="M377.026,-2538C377.026,-2538 165.026,-2538 165.026,-2538 159.026,-2538 153.026,-2532 153.026,-2526 153.026,-2526 153.026,-2514 153.026,-2514 153.026,-2508 159.026,-2502 165.026,-2502 165.026,-2502 377.026,-2502 377.026,-2502 383.026,-2502 389.026,-2508 389.026,-2514 389.026,-2514 389.026,-2526 389.026,-2526 389.026,-2532 383.026,-2538 377.026,-2538"/>
<text text-anchor="middle" x="271.026" y="-2516.3" font-family="Times,serif" font-size="14.00" fill="#131c39">libcom&#45;err2 1.44.1&#45;1ubuntu1.3</text>
</g>
<!-- pkg libcom&#45;err2&#45;&gt;prog0 -->
<g id="edge27" class="edge">
<title>pkg libcom&#45;err2&#45;&gt;prog0</title>
<path fill="none" stroke="#8888cc" d="M389.1052,-2531.566C439.8459,-2530.9277 497.5724,-2522.1799 542.0519,-2493 582.4777,-2466.4795 581.1376,-2444.303 595.0519,-2398 652.6245,-2206.4148 667.8587,-1558.4254 670.5656,-1414.4848"/>
<polygon fill="#8888cc" stroke="#8888cc" points="674.0688,-1414.3406 670.7522,-1404.2782 667.0699,-1414.2126 674.0688,-1414.3406"/>
</g>
<!-- pkg libcups2 -->
<g id="node7" class="node">
<title>pkg libcups2</title>
<path fill="#c9d2ed" stroke="#000000" d="M361.526,-2484C361.526,-2484 180.526,-2484 180.526,-2484 174.526,-2484 168.526,-2478 168.526,-2472 168.526,-2472 168.526,-2460 168.526,-2460 168.526,-2454 174.526,-2448 180.526,-2448 180.526,-2448 361.526,-2448 361.526,-2448 367.526,-2448 373.526,-2454 373.526,-2460 373.526,-2460 373.526,-2472 373.526,-2472 373.526,-2478 367.526,-2484 361.526,-2484"/>
<text text-anchor="middle" x="271.026" y="-2462.3" font-family="Times,serif" font-size="14.00" fill="#131c39">libcups2 2.2.7&#45;1ubuntu2.8</text>
</g>
<!-- pkg libcups2&#45;&gt;prog0 -->
<g id="edge7" class="edge">
<title>pkg libcups2&#45;&gt;prog0</title>
<path fill="none" stroke="#8888cc" d="M373.7853,-2477.5207C427.9056,-2478.5026 493.0256,-2471.1628 542.0519,-2439 582.4777,-2412.4795 581.0402,-2390.2737 595.0519,-2344 649.779,-2163.2642 667.1456,-1553.0928 670.4326,-1414.2672"/>
<polygon fill="#8888cc" stroke="#8888cc" points="673.9368,-1414.1217 670.6692,-1404.0434 666.9387,-1413.9597 673.9368,-1414.1217"/>
</g>
<!-- pkg libcupsimage2 -->
<g id="node8" class="node">
<title>pkg libcupsimage2</title>
<path fill="#c9d2ed" stroke="#000000" d="M383.026,-2430C383.026,-2430 159.026,-2430 159.026,-2430 153.026,-2430 147.026,-2424 147.026,-2418 147.026,-2418 147.026,-2406 147.026,-2406 147.026,-2400 153.026,-2394 159.026,-2394 159.026,-2394 383.026,-2394 383.026,-2394 389.026,-2394 395.026,-2400 395.026,-2406 395.026,-2406 395.026,-2418 395.026,-2418 395.026,-2424 389.026,-2430 383.026,-2430"/>
<text text-anchor="middle" x="271.026" y="-2408.3" font-family="Times,serif" font-size="14.00" fill="#131c39">libcupsimage2 2.2.7&#45;1ubuntu2.8</text>
</g>
<!-- pkg libcupsimage2&#45;&gt;prog0 -->
<g id="edge6" class="edge">
<title>pkg libcupsimage2&#45;&gt;prog0</title>
<path fill="none" stroke="#8888cc" d="M395.2263,-2423.4497C444.4428,-2422.1951 499.3516,-2413.0127 542.0519,-2385 582.4777,-2358.4795 580.9313,-2336.2405 595.0519,-2290 646.8955,-2120.2287 666.3644,-1548.5464 670.2766,-1414.3607"/>
<polygon fill="#8888cc" stroke="#8888cc" points="673.7827,-1414.1957 670.5701,-1404.0997 666.7855,-1413.9955 673.7827,-1414.1957"/>
</g>
<!-- pkg libdbus&#45;1&#45;3 -->
<g id="node9" class="node">
<title>pkg libdbus&#45;1&#45;3</title>
<path fill="#c9d2ed" stroke="#000000" d="M375.526,-2376C375.526,-2376 166.526,-2376 166.526,-2376 160.526,-2376 154.526,-2370 154.526,-2364 154.526,-2364 154.526,-2352 154.526,-2352 154.526,-2346 160.526,-2340 166.526,-2340 166.526,-2340 375.526,-2340 375.526,-2340 381.526,-2340 387.526,-2346 387.526,-2352 387.526,-2352 387.526,-2364 387.526,-2364 387.526,-2370 381.526,-2376 375.526,-2376"/>
<text text-anchor="middle" x="271.026" y="-2354.3" font-family="Times,serif" font-size="14.00" fill="#131c39">libdbus&#45;1&#45;3 1.12.2&#45;1ubuntu1.2</text>
</g>
<!-- pkg libdbus&#45;1&#45;3&#45;&gt;prog0 -->
<g id="edge36" class="edge">
<title>pkg libdbus&#45;1&#45;3&#45;&gt;prog0</title>
<path fill="none" stroke="#8888cc" d="M387.7537,-2369.5811C438.8186,-2369.0816 497.177,-2360.4393 542.0519,-2331 582.4777,-2304.4795 580.8088,-2282.203 595.0519,-2236 644.0357,-2077.1025 665.5483,-1543.3989 670.1058,-1414.295"/>
<polygon fill="#8888cc" stroke="#8888cc" points="673.6121,-1414.1723 670.4614,-1404.0569 666.6163,-1413.9293 673.6121,-1414.1723"/>
</g>
<!-- pkg libexpat1 -->
<g id="node10" class="node">
<title>pkg libexpat1</title>
<path fill="#c9d2ed" stroke="#000000" d="M364.526,-2322C364.526,-2322 177.526,-2322 177.526,-2322 171.526,-2322 165.526,-2316 165.526,-2310 165.526,-2310 165.526,-2298 165.526,-2298 165.526,-2292 171.526,-2286 177.526,-2286 177.526,-2286 364.526,-2286 364.526,-2286 370.526,-2286 376.526,-2292 376.526,-2298 376.526,-2298 376.526,-2310 376.526,-2310 376.526,-2316 370.526,-2322 364.526,-2322"/>
<text text-anchor="middle" x="271.026" y="-2300.3" font-family="Times,serif" font-size="14.00" fill="#131c39">libexpat1 2.2.5&#45;3ubuntu0.2</text>
</g>
<!-- pkg libexpat1&#45;&gt;prog0 -->
<g id="edge24" class="edge">
<title>pkg libexpat1&#45;&gt;prog0</title>
<path fill="none" stroke="#8888cc" d="M376.742,-2315.5658C430.2635,-2316.228 493.9152,-2308.5792 542.0519,-2277 582.4777,-2250.4795 580.6699,-2228.1599 595.0519,-2182 641.1498,-2034.0458 664.6468,-1538.7313 669.9027,-1414.4654"/>
<polygon fill="#8888cc" stroke="#8888cc" points="673.409,-1414.3849 670.3289,-1404.2477 666.4151,-1414.0931 673.409,-1414.3849"/>
</g>
<!-- pkg libffi6 -->
<g id="node11" class="node">
<title>pkg libffi6</title>
<path fill="#c9d2ed" stroke="#000000" d="M315.526,-2268C315.526,-2268 226.526,-2268 226.526,-2268 220.526,-2268 214.526,-2262 214.526,-2256 214.526,-2256 214.526,-2244 214.526,-2244 214.526,-2238 220.526,-2232 226.526,-2232 226.526,-2232 315.526,-2232 315.526,-2232 321.526,-2232 327.526,-2238 327.526,-2244 327.526,-2244 327.526,-2256 327.526,-2256 327.526,-2262 321.526,-2268 315.526,-2268"/>
<text text-anchor="middle" x="271.026" y="-2246.3" font-family="Times,serif" font-size="14.00" fill="#131c39">libffi6 3.2.1&#45;8</text>
</g>
<!-- pkg libffi6&#45;&gt;prog0 -->
<g id="edge38" class="edge">
<title>pkg libffi6&#45;&gt;prog0</title>
<path fill="none" stroke="#8888cc" d="M327.6372,-2258.7208C386.1995,-2264.6688 477.9025,-2265.084 542.0519,-2223 582.4777,-2196.4795 580.5112,-2174.1102 595.0519,-2128 638.2939,-1990.8752 663.7031,-1533.3151 669.6793,-1414.4258"/>
<polygon fill="#8888cc" stroke="#8888cc" points="673.1817,-1414.4627 670.1821,-1404.3014 666.1903,-1414.1154 673.1817,-1414.4627"/>
</g>
<!-- pkg libfontconfig1 -->
<g id="node12" class="node">
<title>pkg libfontconfig1</title>
<path fill="#c9d2ed" stroke="#000000" d="M378.526,-2214C378.526,-2214 163.526,-2214 163.526,-2214 157.526,-2214 151.526,-2208 151.526,-2202 151.526,-2202 151.526,-2190 151.526,-2190 151.526,-2184 157.526,-2178 163.526,-2178 163.526,-2178 378.526,-2178 378.526,-2178 384.526,-2178 390.526,-2184 390.526,-2190 390.526,-2190 390.526,-2202 390.526,-2202 390.526,-2208 384.526,-2214 378.526,-2214"/>
<text text-anchor="middle" x="271.026" y="-2192.3" font-family="Times,serif" font-size="14.00" fill="#131c39">libfontconfig1 2.12.6&#45;0ubuntu2</text>
</g>
<!-- pkg libfontconfig1&#45;&gt;prog0 -->
<g id="edge16" class="edge">
<title>pkg libfontconfig1&#45;&gt;prog0</title>
<path fill="none" stroke="#8888cc" d="M390.7991,-2207.5417C441.1271,-2206.7307 498.0666,-2197.8557 542.0519,-2169 582.4777,-2142.4795 580.328,-2120.052 595.0519,-2074 635.4274,-1947.7174 662.663,-1528.0034 669.4145,-1414.5055"/>
<polygon fill="#8888cc" stroke="#8888cc" points="672.9269,-1414.3963 670.0205,-1404.208 665.939,-1413.985 672.9269,-1414.3963"/>
</g>
<!-- pkg libfreetype6 -->
<g id="node13" class="node">
<title>pkg libfreetype6</title>
<path fill="#c9d2ed" stroke="#000000" d="M368.026,-2160C368.026,-2160 174.026,-2160 174.026,-2160 168.026,-2160 162.026,-2154 162.026,-2148 162.026,-2148 162.026,-2136 162.026,-2136 162.026,-2130 168.026,-2124 174.026,-2124 174.026,-2124 368.026,-2124 368.026,-2124 374.026,-2124 380.026,-2130 380.026,-2136 380.026,-2136 380.026,-2148 380.026,-2148 380.026,-2154 374.026,-2160 368.026,-2160"/>
<text text-anchor="middle" x="271.026" y="-2138.3" font-family="Times,serif" font-size="14.00" fill="#131c39">libfreetype6 2.8.1&#45;2ubuntu2</text>
</g>
<!-- pkg libfreetype6&#45;&gt;prog0 -->
<g id="edge17" class="edge">
<title>pkg libfreetype6&#45;&gt;prog0</title>
<path fill="none" stroke="#8888cc" d="M380.2637,-2153.4135C432.9812,-2153.6407 494.8624,-2145.6514 542.0519,-2115 581.9486,-2089.0855 580.1562,-2067.1821 595.0519,-2022 633.2581,-1906.1117 661.8119,-1521.5087 669.1842,-1414.0858"/>
<polygon fill="#8888cc" stroke="#8888cc" points="672.6821,-1414.2353 669.8684,-1404.0209 665.6982,-1413.7605 672.6821,-1414.2353"/>
</g>
<!-- pkg libgcrypt20 -->
<g id="node14" class="node">
<title>pkg libgcrypt20</title>
<path fill="#c9d2ed" stroke="#000000" d="M372.526,-2106C372.526,-2106 169.526,-2106 169.526,-2106 163.526,-2106 157.526,-2100 157.526,-2094 157.526,-2094 157.526,-2082 157.526,-2082 157.526,-2076 163.526,-2070 169.526,-2070 169.526,-2070 372.526,-2070 372.526,-2070 378.526,-2070 384.526,-2076 384.526,-2082 384.526,-2082 384.526,-2094 384.526,-2094 384.526,-2100 378.526,-2106 372.526,-2106"/>
<text text-anchor="middle" x="271.026" y="-2084.3" font-family="Times,serif" font-size="14.00" fill="#131c39">libgcrypt20 1.8.1&#45;4ubuntu1.2</text>
</g>
<!-- pkg libgcrypt20&#45;&gt;prog0 -->
<g id="edge41" class="edge">
<title>pkg libgcrypt20&#45;&gt;prog0</title>
<path fill="none" stroke="#8888cc" d="M384.8125,-2099.217C436.4556,-2098.9144 496.111,-2090.5342 542.0519,-2061 581.4221,-2035.6899 579.9562,-2014.3028 595.0519,-1970 630.9259,-1864.7169 660.7179,-1516.5598 668.8536,-1414.4095"/>
<polygon fill="#8888cc" stroke="#8888cc" points="672.3579,-1414.4913 669.6559,-1404.2468 665.3797,-1413.9403 672.3579,-1414.4913"/>
</g>
<!-- pkg libgmp10 -->
<g id="node15" class="node">
<title>pkg libgmp10</title>
<path fill="#c9d2ed" stroke="#000000" d="M356.026,-2052C356.026,-2052 186.026,-2052 186.026,-2052 180.026,-2052 174.026,-2046 174.026,-2040 174.026,-2040 174.026,-2028 174.026,-2028 174.026,-2022 180.026,-2016 186.026,-2016 186.026,-2016 356.026,-2016 356.026,-2016 362.026,-2016 368.026,-2022 368.026,-2028 368.026,-2028 368.026,-2040 368.026,-2040 368.026,-2046 362.026,-2052 356.026,-2052"/>
<text text-anchor="middle" x="271.026" y="-2030.3" font-family="Times,serif" font-size="14.00" fill="#131c39">libgmp10 2:6.1.2+dfsg&#45;2</text>
</g>
<!-- pkg libgmp10&#45;&gt;prog0 -->
<g id="edge35" class="edge">
<title>pkg libgmp10&#45;&gt;prog0</title>
<path fill="none" stroke="#8888cc" d="M368.0515,-2044.5704C422.9788,-2045.8439 490.7353,-2039.0939 542.0519,-2007 580.1181,-1983.1931 579.7955,-1963.2261 595.0519,-1921 629.4692,-1825.7409 659.8961,-1510.5572 668.5783,-1414.2195"/>
<polygon fill="#8888cc" stroke="#8888cc" points="672.0802,-1414.3532 669.4842,-1404.0814 665.108,-1413.7302 672.0802,-1414.3532"/>
</g>
<!-- pkg libgnutls30 -->
<g id="node16" class="node">
<title>pkg libgnutls30</title>
<path fill="#c9d2ed" stroke="#000000" d="M376.026,-1998C376.026,-1998 166.026,-1998 166.026,-1998 160.026,-1998 154.026,-1992 154.026,-1986 154.026,-1986 154.026,-1974 154.026,-1974 154.026,-1968 160.026,-1962 166.026,-1962 166.026,-1962 376.026,-1962 376.026,-1962 382.026,-1962 388.026,-1968 388.026,-1974 388.026,-1974 388.026,-1986 388.026,-1986 388.026,-1992 382.026,-1998 376.026,-1998"/>
<text text-anchor="middle" x="271.026" y="-1976.3" font-family="Times,serif" font-size="14.00" fill="#131c39">libgnutls30 3.5.18&#45;1ubuntu1.4</text>
</g>
<!-- pkg libgnutls30&#45;&gt;prog0 -->
<g id="edge21" class="edge">
<title>pkg libgnutls30&#45;&gt;prog0</title>
<path fill="none" stroke="#8888cc" d="M388.1119,-1991.0844C438.954,-1990.4207 497.0359,-1981.7866 542.0519,-1953 635.1817,-1893.4459 663.3779,-1520.8402 669.5829,-1414.3772"/>
<polygon fill="#8888cc" stroke="#8888cc" points="673.0938,-1414.2806 670.161,-1404.0998 666.1048,-1413.8875 673.0938,-1414.2806"/>
</g>
<!-- pkg libgpg&#45;error0 -->
<g id="node17" class="node">
<title>pkg libgpg&#45;error0</title>
<path fill="#c9d2ed" stroke="#000000" d="M339.526,-1944C339.526,-1944 202.526,-1944 202.526,-1944 196.526,-1944 190.526,-1938 190.526,-1932 190.526,-1932 190.526,-1920 190.526,-1920 190.526,-1914 196.526,-1908 202.526,-1908 202.526,-1908 339.526,-1908 339.526,-1908 345.526,-1908 351.526,-1914 351.526,-1920 351.526,-1920 351.526,-1932 351.526,-1932 351.526,-1938 345.526,-1944 339.526,-1944"/>
<text text-anchor="middle" x="271.026" y="-1922.3" font-family="Times,serif" font-size="14.00" fill="#131c39">libgpg&#45;error0 1.27&#45;6</text>
</g>
<!-- pkg libgpg&#45;error0&#45;&gt;prog0 -->
<g id="edge42" class="edge">
<title>pkg libgpg&#45;error0&#45;&gt;prog0</title>
<path fill="none" stroke="#8888cc" d="M351.655,-1936.2781C409.0965,-1939.4782 485.7819,-1934.9832 542.0519,-1899 626.0398,-1845.2919 660.3532,-1513.7036 668.8402,-1414.2"/>
<polygon fill="#8888cc" stroke="#8888cc" points="672.3463,-1414.2706 669.687,-1404.0149 665.3704,-1413.6905 672.3463,-1414.2706"/>
</g>
<!-- pkg libgs9 -->
<g id="node18" class="node">
<title>pkg libgs9</title>
<path fill="#c9d2ed" stroke="#000000" d="M409.526,-1890C409.526,-1890 132.526,-1890 132.526,-1890 126.526,-1890 120.526,-1884 120.526,-1878 120.526,-1878 120.526,-1866 120.526,-1866 120.526,-1860 126.526,-1854 132.526,-1854 132.526,-1854 409.526,-1854 409.526,-1854 415.526,-1854 421.526,-1860 421.526,-1866 421.526,-1866 421.526,-1878 421.526,-1878 421.526,-1884 415.526,-1890 409.526,-1890"/>
<text text-anchor="middle" x="271.026" y="-1868.3" font-family="Times,serif" font-size="14.00" fill="#131c39">libgs9 9.26~dfsg+0&#45;0ubuntu0.18.04.13</text>
</g>
<!-- pkg libgs9&#45;&gt;prog0 -->
<g id="edge4" class="edge">
<title>pkg libgs9&#45;&gt;prog0</title>
<path fill="none" stroke="#8888cc" d="M421.5731,-1881.3245C463.209,-1877.6736 506.6411,-1867.5223 542.0519,-1845 617.0465,-1797.3013 656.9965,-1506.638 667.9244,-1414.1997"/>
<polygon fill="#8888cc" stroke="#8888cc" points="671.4111,-1414.516 669.0863,-1404.1793 664.4577,-1413.7096 671.4111,-1414.516"/>
</g>
<!-- pkg libgs9&#45;common -->
<g id="node19" class="node">
<title>pkg libgs9&#45;common</title>
<path fill="#c9d2ed" stroke="#000000" d="M442.026,-1836C442.026,-1836 100.026,-1836 100.026,-1836 94.026,-1836 88.026,-1830 88.026,-1824 88.026,-1824 88.026,-1812 88.026,-1812 88.026,-1806 94.026,-1800 100.026,-1800 100.026,-1800 442.026,-1800 442.026,-1800 448.026,-1800 454.026,-1806 454.026,-1812 454.026,-1812 454.026,-1824 454.026,-1824 454.026,-1830 448.026,-1836 442.026,-1836"/>
<text text-anchor="middle" x="271.026" y="-1814.3" font-family="Times,serif" font-size="14.00" fill="#131c39">libgs9&#45;common 9.26~dfsg+0&#45;0ubuntu0.18.04.13</text>
</g>
<!-- pkg libgs9&#45;common&#45;&gt;prog0 -->
<g id="edge43" class="edge">
<title>pkg libgs9&#45;common&#45;&gt;prog0</title>
<path fill="none" stroke="#8888cc" d="M454.3442,-1822.1479C485.2012,-1816.7144 515.7181,-1807.0783 542.0519,-1791 608.7924,-1750.2512 653.4408,-1499.3956 666.8338,-1414.2449"/>
<polygon fill="#8888cc" stroke="#8888cc" points="670.3087,-1414.6758 668.38,-1404.258 663.3911,-1413.6048 670.3087,-1414.6758"/>
</g>
<!-- pkg libgssapi&#45;krb5&#45;2 -->
<g id="node20" class="node">
<title>pkg libgssapi&#45;krb5&#45;2</title>
<path fill="#c9d2ed" stroke="#000000" d="M386.526,-1782C386.526,-1782 155.526,-1782 155.526,-1782 149.526,-1782 143.526,-1776 143.526,-1770 143.526,-1770 143.526,-1758 143.526,-1758 143.526,-1752 149.526,-1746 155.526,-1746 155.526,-1746 386.526,-1746 386.526,-1746 392.526,-1746 398.526,-1752 398.526,-1758 398.526,-1758 398.526,-1770 398.526,-1770 398.526,-1776 392.526,-1782 386.526,-1782"/>
<text text-anchor="middle" x="271.026" y="-1760.3" font-family="Times,serif" font-size="14.00" fill="#131c39">libgssapi&#45;krb5&#45;2 1.16&#45;2ubuntu0.1</text>
</g>
<!-- pkg libgssapi&#45;krb5&#45;2&#45;&gt;prog0 -->
<g id="edge20" class="edge">
<title>pkg libgssapi&#45;krb5&#45;2&#45;&gt;prog0</title>
<path fill="none" stroke="#8888cc" d="M398.8389,-1772.1843C446.3843,-1770.0165 499.157,-1761.0509 542.0519,-1737 576.0893,-1717.9154 577.8644,-1702.0336 595.0519,-1667 637.5493,-1580.3769 658.9296,-1466.6683 667.0536,-1414.4528"/>
<polygon fill="#8888cc" stroke="#8888cc" points="670.558,-1414.686 668.5888,-1404.2758 663.6363,-1413.6418 670.558,-1414.686"/>
</g>
<!-- pkg libhogweed4 -->
<g id="node21" class="node">
<title>pkg libhogweed4</title>
<path fill="#c9d2ed" stroke="#000000" d="M333.026,-1728C333.026,-1728 209.026,-1728 209.026,-1728 203.026,-1728 197.026,-1722 197.026,-1716 197.026,-1716 197.026,-1704 197.026,-1704 197.026,-1698 203.026,-1692 209.026,-1692 209.026,-1692 333.026,-1692 333.026,-1692 339.026,-1692 345.026,-1698 345.026,-1704 345.026,-1704 345.026,-1716 345.026,-1716 345.026,-1722 339.026,-1728 333.026,-1728"/>
<text text-anchor="middle" x="271.026" y="-1706.3" font-family="Times,serif" font-size="14.00" fill="#131c39">libhogweed4 3.4&#45;1</text>
</g>
<!-- pkg libhogweed4&#45;&gt;prog0 -->
<g id="edge34" class="edge">
<title>pkg libhogweed4&#45;&gt;prog0</title>
<path fill="none" stroke="#8888cc" d="M345.2475,-1717.8233C402.4927,-1720.4063 481.8061,-1716.2272 542.0519,-1683 640.7034,-1628.591 663.9544,-1477.3572 669.4005,-1414.2383"/>
<polygon fill="#8888cc" stroke="#8888cc" points="672.8949,-1414.4448 670.1781,-1404.2042 665.9158,-1413.9039 672.8949,-1414.4448"/>
</g>
<!-- pkg libidn11 -->
<g id="node22" class="node">
<title>pkg libidn11</title>
<path fill="#c9d2ed" stroke="#000000" d="M365.026,-1674C365.026,-1674 177.026,-1674 177.026,-1674 171.026,-1674 165.026,-1668 165.026,-1662 165.026,-1662 165.026,-1650 165.026,-1650 165.026,-1644 171.026,-1638 177.026,-1638 177.026,-1638 365.026,-1638 365.026,-1638 371.026,-1638 377.026,-1644 377.026,-1650 377.026,-1650 377.026,-1662 377.026,-1662 377.026,-1668 371.026,-1674 365.026,-1674"/>
<text text-anchor="middle" x="271.026" y="-1652.3" font-family="Times,serif" font-size="14.00" fill="#131c39">libidn11 1.33&#45;2.1ubuntu1.2</text>
</g>
<!-- pkg libidn11&#45;&gt;prog0 -->
<g id="edge14" class="edge">
<title>pkg libidn11&#45;&gt;prog0</title>
<path fill="none" stroke="#8888cc" d="M377.1575,-1664.4383C429.7076,-1664.0492 492.3647,-1656.4039 542.0519,-1629 623.217,-1584.2353 655.4564,-1467.699 666.3056,-1413.9291"/>
<polygon fill="#8888cc" stroke="#8888cc" points="669.7537,-1414.5319 668.1983,-1404.0518 662.8787,-1413.2144 669.7537,-1414.5319"/>
</g>
<!-- pkg libidn2&#45;0 -->
<g id="node23" class="node">
<title>pkg libidn2&#45;0</title>
<path fill="#c9d2ed" stroke="#000000" d="M369.526,-1620C369.526,-1620 172.526,-1620 172.526,-1620 166.526,-1620 160.526,-1614 160.526,-1608 160.526,-1608 160.526,-1596 160.526,-1596 160.526,-1590 166.526,-1584 172.526,-1584 172.526,-1584 369.526,-1584 369.526,-1584 375.526,-1584 381.526,-1590 381.526,-1596 381.526,-1596 381.526,-1608 381.526,-1608 381.526,-1614 375.526,-1620 369.526,-1620"/>
<text text-anchor="middle" x="271.026" y="-1598.3" font-family="Times,serif" font-size="14.00" fill="#131c39">libidn2&#45;0 2.0.4&#45;1.1ubuntu0.2</text>
</g>
<!-- pkg libidn2&#45;0&#45;&gt;prog0 -->
<g id="edge30" class="edge">
<title>pkg libidn2&#45;0&#45;&gt;prog0</title>
<path fill="none" stroke="#8888cc" d="M381.7665,-1609.7408C433.1879,-1608.7713 493.5298,-1600.8323 542.0519,-1575 606.9551,-1540.4467 645.4392,-1457.0657 661.7802,-1413.5209"/>
<polygon fill="#8888cc" stroke="#8888cc" points="665.0733,-1414.7064 665.1978,-1404.1123 658.4939,-1412.3164 665.0733,-1414.7064"/>
</g>
<!-- pkg libijs&#45;0.35 -->
<g id="node24" class="node">
<title>pkg libijs&#45;0.35</title>
<path fill="#c9d2ed" stroke="#000000" d="M332.026,-1566C332.026,-1566 210.026,-1566 210.026,-1566 204.026,-1566 198.026,-1560 198.026,-1554 198.026,-1554 198.026,-1542 198.026,-1542 198.026,-1536 204.026,-1530 210.026,-1530 210.026,-1530 332.026,-1530 332.026,-1530 338.026,-1530 344.026,-1536 344.026,-1542 344.026,-1542 344.026,-1554 344.026,-1554 344.026,-1560 338.026,-1566 332.026,-1566"/>
<text text-anchor="middle" x="271.026" y="-1544.3" font-family="Times,serif" font-size="14.00" fill="#131c39">libijs&#45;0.35 0.35&#45;13</text>
</g>
<!-- pkg libijs&#45;0.35&#45;&gt;prog0 -->
<g id="edge8" class="edge">
<title>pkg libijs&#45;0.35&#45;&gt;prog0</title>
<path fill="none" stroke="#8888cc" d="M344.0638,-1554.098C400.8442,-1555.7704 480.1052,-1551.2074 542.0519,-1521 591.8569,-1496.7133 632.6631,-1444.6737 654.2835,-1412.7695"/>
<polygon fill="#8888cc" stroke="#8888cc" points="657.2597,-1414.6143 659.8644,-1404.3446 651.4239,-1410.7485 657.2597,-1414.6143"/>
</g>
<!-- pkg libjbig0 -->
<g id="node25" class="node">
<title>pkg libjbig0</title>
<path fill="#c9d2ed" stroke="#000000" d="M344.026,-1512C344.026,-1512 198.026,-1512 198.026,-1512 192.026,-1512 186.026,-1506 186.026,-1500 186.026,-1500 186.026,-1488 186.026,-1488 186.026,-1482 192.026,-1476 198.026,-1476 198.026,-1476 344.026,-1476 344.026,-1476 350.026,-1476 356.026,-1482 356.026,-1488 356.026,-1488 356.026,-1500 356.026,-1500 356.026,-1506 350.026,-1512 344.026,-1512"/>
<text text-anchor="middle" x="271.026" y="-1490.3" font-family="Times,serif" font-size="14.00" fill="#131c39">libjbig0 2.1&#45;3.1build1</text>
</g>
<!-- pkg libjbig0&#45;&gt;prog0 -->
<g id="edge19" class="edge">
<title>pkg libjbig0&#45;&gt;prog0</title>
<path fill="none" stroke="#8888cc" d="M356.1753,-1495.4376C410.6597,-1493.9671 482.1074,-1487.5319 542.0519,-1467 579.1391,-1454.2971 616.5308,-1429.1448 641.4381,-1410.2208"/>
<polygon fill="#8888cc" stroke="#8888cc" points="643.6213,-1412.957 649.3878,-1404.0689 639.3372,-1407.421 643.6213,-1412.957"/>
</g>
<!-- pkg libjbig2dec0 -->
<g id="node26" class="node">
<title>pkg libjbig2dec0</title>
<path fill="#c9d2ed" stroke="#000000" d="M336.526,-1458C336.526,-1458 205.526,-1458 205.526,-1458 199.526,-1458 193.526,-1452 193.526,-1446 193.526,-1446 193.526,-1434 193.526,-1434 193.526,-1428 199.526,-1422 205.526,-1422 205.526,-1422 336.526,-1422 336.526,-1422 342.526,-1422 348.526,-1428 348.526,-1434 348.526,-1434 348.526,-1446 348.526,-1446 348.526,-1452 342.526,-1458 336.526,-1458"/>
<text text-anchor="middle" x="271.026" y="-1436.3" font-family="Times,serif" font-size="14.00" fill="#131c39">libjbig2dec0 0.13&#45;6</text>
</g>
<!-- pkg libjbig2dec0&#45;&gt;prog0 -->
<g id="edge10" class="edge">
<title>pkg libjbig2dec0&#45;&gt;prog0</title>
<path fill="none" stroke="#8888cc" d="M348.6999,-1434.4815C403.0376,-1430.0794 477.2071,-1422.9867 542.0519,-1413 561.8873,-1409.9452 583.2738,-1405.8141 602.8202,-1401.7029"/>
<polygon fill="#8888cc" stroke="#8888cc" points="603.8069,-1405.0712 612.8559,-1399.5607 602.3456,-1398.2255 603.8069,-1405.0712"/>
</g>
<!-- pkg libjpeg&#45;turbo8 -->
<g id="node27" class="node">
<title>pkg libjpeg&#45;turbo8</title>
<path fill="#c9d2ed" stroke="#000000" d="M404.026,-1404C404.026,-1404 138.026,-1404 138.026,-1404 132.026,-1404 126.026,-1398 126.026,-1392 126.026,-1392 126.026,-1380 126.026,-1380 126.026,-1374 132.026,-1368 138.026,-1368 138.026,-1368 404.026,-1368 404.026,-1368 410.026,-1368 416.026,-1374 416.026,-1380 416.026,-1380 416.026,-1392 416.026,-1392 416.026,-1398 410.026,-1404 404.026,-1404"/>
<text text-anchor="middle" x="271.026" y="-1382.3" font-family="Times,serif" font-size="14.00" fill="#131c39">libjpeg&#45;turbo8 1.5.2&#45;0ubuntu5.18.04.4</text>
</g>
<!-- pkg libjpeg&#45;turbo8&#45;&gt;prog0 -->
<g id="edge11" class="edge">
<title>pkg libjpeg&#45;turbo8&#45;&gt;prog0</title>
<path fill="none" stroke="#8888cc" d="M416.293,-1386C479.9608,-1386 551.6467,-1386 602.7183,-1386"/>
<polygon fill="#8888cc" stroke="#8888cc" points="602.971,-1389.5001 612.9709,-1386 602.9709,-1382.5001 602.971,-1389.5001"/>
</g>
<!-- pkg libk5crypto3 -->
<g id="node28" class="node">
<title>pkg libk5crypto3</title>
<path fill="#c9d2ed" stroke="#000000" d="M374.526,-1350C374.526,-1350 167.526,-1350 167.526,-1350 161.526,-1350 155.526,-1344 155.526,-1338 155.526,-1338 155.526,-1326 155.526,-1326 155.526,-1320 161.526,-1314 167.526,-1314 167.526,-1314 374.526,-1314 374.526,-1314 380.526,-1314 386.526,-1320 386.526,-1326 386.526,-1326 386.526,-1338 386.526,-1338 386.526,-1344 380.526,-1350 374.526,-1350"/>
<text text-anchor="middle" x="271.026" y="-1328.3" font-family="Times,serif" font-size="14.00" fill="#131c39">libk5crypto3 1.16&#45;2ubuntu0.1</text>
</g>
<!-- pkg libk5crypto3&#45;&gt;prog0 -->
<g id="edge26" class="edge">
<title>pkg libk5crypto3&#45;&gt;prog0</title>
<path fill="none" stroke="#8888cc" d="M386.7655,-1340.7835C434.935,-1345.1508 491.3444,-1351.1906 542.0519,-1359 561.8873,-1362.0548 583.2738,-1366.1859 602.8202,-1370.2971"/>
<polygon fill="#8888cc" stroke="#8888cc" points="602.3456,-1373.7745 612.8559,-1372.4393 603.8069,-1366.9288 602.3456,-1373.7745"/>
</g>
<!-- pkg libkeyutils1 -->
<g id="node29" class="node">
<title>pkg libkeyutils1</title>
<path fill="#c9d2ed" stroke="#000000" d="M373.026,-1296C373.026,-1296 169.026,-1296 169.026,-1296 163.026,-1296 157.026,-1290 157.026,-1284 157.026,-1284 157.026,-1272 157.026,-1272 157.026,-1266 163.026,-1260 169.026,-1260 169.026,-1260 373.026,-1260 373.026,-1260 379.026,-1260 385.026,-1266 385.026,-1272 385.026,-1272 385.026,-1284 385.026,-1284 385.026,-1290 379.026,-1296 373.026,-1296"/>
<text text-anchor="middle" x="271.026" y="-1274.3" font-family="Times,serif" font-size="14.00" fill="#131c39">libkeyutils1 1.5.9&#45;9.2ubuntu2</text>
</g>
<!-- pkg libkeyutils1&#45;&gt;prog0 -->
<g id="edge37" class="edge">
<title>pkg libkeyutils1&#45;&gt;prog0</title>
<path fill="none" stroke="#8888cc" d="M385.2533,-1277.7854C434.5884,-1280.6243 492.2845,-1287.954 542.0519,-1305 579.1391,-1317.7029 616.5308,-1342.8552 641.4381,-1361.7792"/>
<polygon fill="#8888cc" stroke="#8888cc" points="639.3372,-1364.579 649.3878,-1367.9311 643.6213,-1359.043 639.3372,-1364.579"/>
</g>
<!-- pkg libkrb5&#45;3 -->
<g id="node30" class="node">
<title>pkg libkrb5&#45;3</title>
<path fill="#c9d2ed" stroke="#000000" d="M361.526,-1242C361.526,-1242 180.526,-1242 180.526,-1242 174.526,-1242 168.526,-1236 168.526,-1230 168.526,-1230 168.526,-1218 168.526,-1218 168.526,-1212 174.526,-1206 180.526,-1206 180.526,-1206 361.526,-1206 361.526,-1206 367.526,-1206 373.526,-1212 373.526,-1218 373.526,-1218 373.526,-1230 373.526,-1230 373.526,-1236 367.526,-1242 361.526,-1242"/>
<text text-anchor="middle" x="271.026" y="-1220.3" font-family="Times,serif" font-size="14.00" fill="#131c39">libkrb5&#45;3 1.16&#45;2ubuntu0.1</text>
</g>
<!-- pkg libkrb5&#45;3&#45;&gt;prog0 -->
<g id="edge25" class="edge">
<title>pkg libkrb5&#45;3&#45;&gt;prog0</title>
<path fill="none" stroke="#8888cc" d="M373.7641,-1217.6697C426.4778,-1218.4277 490.3057,-1225.7667 542.0519,-1251 591.8569,-1275.2867 632.6631,-1327.3263 654.2835,-1359.2305"/>
<polygon fill="#8888cc" stroke="#8888cc" points="651.4239,-1361.2515 659.8644,-1367.6554 657.2597,-1357.3857 651.4239,-1361.2515"/>
</g>
<!-- pkg libkrb5support0 -->
<g id="node31" class="node">
<title>pkg libkrb5support0</title>
<path fill="#c9d2ed" stroke="#000000" d="M387.026,-1188C387.026,-1188 155.026,-1188 155.026,-1188 149.026,-1188 143.026,-1182 143.026,-1176 143.026,-1176 143.026,-1164 143.026,-1164 143.026,-1158 149.026,-1152 155.026,-1152 155.026,-1152 387.026,-1152 387.026,-1152 393.026,-1152 399.026,-1158 399.026,-1164 399.026,-1164 399.026,-1176 399.026,-1176 399.026,-1182 393.026,-1188 387.026,-1188"/>
<text text-anchor="middle" x="271.026" y="-1166.3" font-family="Times,serif" font-size="14.00" fill="#131c39">libkrb5support0 1.16&#45;2ubuntu0.1</text>
</g>
<!-- pkg libkrb5support0&#45;&gt;prog0 -->
<g id="edge28" class="edge">
<title>pkg libkrb5support0&#45;&gt;prog0</title>
<path fill="none" stroke="#8888cc" d="M399.2286,-1163.0397C446.4302,-1165.4275 498.8674,-1174.2236 542.0519,-1197 607.0884,-1231.3016 645.5131,-1314.7949 661.8109,-1358.4211"/>
<polygon fill="#8888cc" stroke="#8888cc" points="658.5275,-1359.6337 665.2188,-1367.8481 665.1106,-1357.2538 658.5275,-1359.6337"/>
</g>
<!-- pkg liblcms2&#45;2 -->
<g id="node32" class="node">
<title>pkg liblcms2&#45;2</title>
<path fill="#c9d2ed" stroke="#000000" d="M361.526,-1134C361.526,-1134 180.526,-1134 180.526,-1134 174.526,-1134 168.526,-1128 168.526,-1122 168.526,-1122 168.526,-1110 168.526,-1110 168.526,-1104 174.526,-1098 180.526,-1098 180.526,-1098 361.526,-1098 361.526,-1098 367.526,-1098 373.526,-1104 373.526,-1110 373.526,-1110 373.526,-1122 373.526,-1122 373.526,-1128 367.526,-1134 361.526,-1134"/>
<text text-anchor="middle" x="271.026" y="-1112.3" font-family="Times,serif" font-size="14.00" fill="#131c39">liblcms2&#45;2 2.9&#45;1ubuntu0.1</text>
</g>
<!-- pkg liblcms2&#45;2&#45;&gt;prog0 -->
<g id="edge13" class="edge">
<title>pkg liblcms2&#45;2&#45;&gt;prog0</title>
<path fill="none" stroke="#8888cc" d="M373.5533,-1108.1615C426.6653,-1108.4268 490.9211,-1115.7789 542.0519,-1143 623.8705,-1186.5588 655.7727,-1303.7174 666.4203,-1357.8592"/>
<polygon fill="#8888cc" stroke="#8888cc" points="663.0014,-1358.6177 668.275,-1367.8068 669.8828,-1357.3347 663.0014,-1358.6177"/>
</g>
<!-- pkg liblz4&#45;1 -->
<g id="node33" class="node">
<title>pkg liblz4&#45;1</title>
<path fill="#c9d2ed" stroke="#000000" d="M366.526,-1080C366.526,-1080 175.526,-1080 175.526,-1080 169.526,-1080 163.526,-1074 163.526,-1068 163.526,-1068 163.526,-1056 163.526,-1056 163.526,-1050 169.526,-1044 175.526,-1044 175.526,-1044 366.526,-1044 366.526,-1044 372.526,-1044 378.526,-1050 378.526,-1056 378.526,-1056 378.526,-1068 378.526,-1068 378.526,-1074 372.526,-1080 366.526,-1080"/>
<text text-anchor="middle" x="271.026" y="-1058.3" font-family="Times,serif" font-size="14.00" fill="#131c39">liblz4&#45;1 0.0~r131&#45;2ubuntu3</text>
</g>
<!-- pkg liblz4&#45;1&#45;&gt;prog0 -->
<g id="edge40" class="edge">
<title>pkg liblz4&#45;1&#45;&gt;prog0</title>
<path fill="none" stroke="#8888cc" d="M378.614,-1054.5461C430.628,-1055.3445 492.3863,-1063.0553 542.0519,-1089 642.1442,-1141.287 664.5839,-1294.3877 669.6068,-1357.8939"/>
<polygon fill="#8888cc" stroke="#8888cc" points="666.123,-1358.2491 670.3153,-1367.9792 673.1058,-1357.7585 666.123,-1358.2491"/>
</g>
<!-- pkg liblzma5 -->
<g id="node34" class="node">
<title>pkg liblzma5</title>
<path fill="#c9d2ed" stroke="#000000" d="M331.526,-1026C331.526,-1026 210.526,-1026 210.526,-1026 204.526,-1026 198.526,-1020 198.526,-1014 198.526,-1014 198.526,-1002 198.526,-1002 198.526,-996 204.526,-990 210.526,-990 210.526,-990 331.526,-990 331.526,-990 337.526,-990 343.526,-996 343.526,-1002 343.526,-1002 343.526,-1014 343.526,-1014 343.526,-1020 337.526,-1026 331.526,-1026"/>
<text text-anchor="middle" x="271.026" y="-1004.3" font-family="Times,serif" font-size="14.00" fill="#131c39">liblzma5 5.2.2&#45;1.3</text>
</g>
<!-- pkg liblzma5&#45;&gt;prog0 -->
<g id="edge18" class="edge">
<title>pkg liblzma5&#45;&gt;prog0</title>
<path fill="none" stroke="#8888cc" d="M343.8022,-1000.7256C400.9837,-998.3087 480.9036,-1002.4457 542.0519,-1035 574.6516,-1052.3555 578.153,-1066.1613 595.0519,-1099 640.3951,-1187.113 660.4968,-1304.7475 667.6962,-1357.8671"/>
<polygon fill="#8888cc" stroke="#8888cc" points="664.2403,-1358.4333 669.0045,-1367.8966 671.1815,-1357.5278 664.2403,-1358.4333"/>
</g>
<!-- pkg libnettle6 -->
<g id="node35" class="node">
<title>pkg libnettle6</title>
<path fill="#c9d2ed" stroke="#000000" d="M322.026,-972C322.026,-972 220.026,-972 220.026,-972 214.026,-972 208.026,-966 208.026,-960 208.026,-960 208.026,-948 208.026,-948 208.026,-942 214.026,-936 220.026,-936 220.026,-936 322.026,-936 322.026,-936 328.026,-936 334.026,-942 334.026,-948 334.026,-948 334.026,-960 334.026,-960 334.026,-966 328.026,-972 322.026,-972"/>
<text text-anchor="middle" x="271.026" y="-950.3" font-family="Times,serif" font-size="14.00" fill="#131c39">libnettle6 3.4&#45;1</text>
</g>
<!-- pkg libnettle6&#45;&gt;prog0 -->
<g id="edge33" class="edge">
<title>pkg libnettle6&#45;&gt;prog0</title>
<path fill="none" stroke="#8888cc" d="M334.3034,-947.3099C391.818,-944.131 477.3274,-946.8629 542.0519,-981 574.4167,-998.0699 578.8392,-1011.1974 595.0519,-1044 648.3306,-1151.7972 664.6444,-1297.0593 669.3119,-1357.6355"/>
<polygon fill="#8888cc" stroke="#8888cc" points="665.8441,-1358.2102 670.0541,-1367.9327 672.826,-1357.7069 665.8441,-1358.2102"/>
</g>
<!-- pkg libp11&#45;kit0 -->
<g id="node36" class="node">
<title>pkg libp11&#45;kit0</title>
<path fill="#c9d2ed" stroke="#000000" d="M338.026,-918C338.026,-918 204.026,-918 204.026,-918 198.026,-918 192.026,-912 192.026,-906 192.026,-906 192.026,-894 192.026,-894 192.026,-888 198.026,-882 204.026,-882 204.026,-882 338.026,-882 338.026,-882 344.026,-882 350.026,-888 350.026,-894 350.026,-894 350.026,-906 350.026,-906 350.026,-912 344.026,-918 338.026,-918"/>
<text text-anchor="middle" x="271.026" y="-896.3" font-family="Times,serif" font-size="14.00" fill="#131c39">libp11&#45;kit0 0.23.9&#45;2</text>
</g>
<!-- pkg libp11&#45;kit0&#45;&gt;prog0 -->
<g id="edge29" class="edge">
<title>pkg libp11&#45;kit0&#45;&gt;prog0</title>
<path fill="none" stroke="#8888cc" d="M350.1892,-892.7614C406.7396,-891.0737 482.9561,-896.1291 542.0519,-927 574.1834,-943.7851 579.3418,-956.3294 595.0519,-989 626.8565,-1055.1404 657.4239,-1278.2209 667.5446,-1357.6367"/>
<polygon fill="#8888cc" stroke="#8888cc" points="664.1099,-1358.3751 668.8349,-1367.8579 671.0548,-1357.4982 664.1099,-1358.3751"/>
</g>
<!-- pkg libpaper1 -->
<g id="node37" class="node">
<title>pkg libpaper1</title>
<path fill="#c9d2ed" stroke="#000000" d="M382.526,-864C382.526,-864 159.526,-864 159.526,-864 153.526,-864 147.526,-858 147.526,-852 147.526,-852 147.526,-840 147.526,-840 147.526,-834 153.526,-828 159.526,-828 159.526,-828 382.526,-828 382.526,-828 388.526,-828 394.526,-834 394.526,-840 394.526,-840 394.526,-852 394.526,-852 394.526,-858 388.526,-864 382.526,-864"/>
<text text-anchor="middle" x="271.026" y="-842.3" font-family="Times,serif" font-size="14.00" fill="#131c39">libpaper1 1.1.24+nmu5ubuntu1</text>
</g>
<!-- pkg libpaper1&#45;&gt;prog0 -->
<g id="edge15" class="edge">
<title>pkg libpaper1&#45;&gt;prog0</title>
<path fill="none" stroke="#8888cc" d="M394.6929,-839.013C443.012,-841.0931 497.4157,-849.6826 542.0519,-873 574.1834,-889.7851 579.7054,-902.1571 595.0519,-935 630.7522,-1011.4021 659.5325,-1271.5195 668.2976,-1357.8767"/>
<polygon fill="#8888cc" stroke="#8888cc" points="664.83,-1358.3753 669.3114,-1367.9757 671.795,-1357.6761 664.83,-1358.3753"/>
</g>
<!-- pkg libpng16&#45;16 -->
<g id="node38" class="node">
<title>pkg libpng16&#45;16</title>
<path fill="#c9d2ed" stroke="#000000" d="M401.026,-810C401.026,-810 141.026,-810 141.026,-810 135.026,-810 129.026,-804 129.026,-798 129.026,-798 129.026,-786 129.026,-786 129.026,-780 135.026,-774 141.026,-774 141.026,-774 401.026,-774 401.026,-774 407.026,-774 413.026,-780 413.026,-786 413.026,-786 413.026,-798 413.026,-798 413.026,-804 407.026,-810 401.026,-810"/>
<text text-anchor="middle" x="271.026" y="-788.3" font-family="Times,serif" font-size="14.00" fill="#131c39">libpng16&#45;16 1.6.34&#45;1ubuntu0.18.04.2</text>
</g>
<!-- pkg libpng16&#45;16&#45;&gt;prog0 -->
<g id="edge9" class="edge">
<title>pkg libpng16&#45;16&#45;&gt;prog0</title>
<path fill="none" stroke="#8888cc" d="M413.3288,-786.1346C456.6476,-789.5074 503.0738,-798.6383 542.0519,-819 574.1834,-835.7851 579.9946,-848.0235 595.0519,-881 634.5933,-967.5981 661.2753,-1264.2681 668.8478,-1357.6321"/>
<polygon fill="#8888cc" stroke="#8888cc" points="665.37,-1358.0515 669.657,-1367.7403 672.3477,-1357.4928 665.37,-1358.0515"/>
</g>
<!-- pkg libsystemd0 -->
<g id="node39" class="node">
<title>pkg libsystemd0</title>
<path fill="#c9d2ed" stroke="#000000" d="M379.026,-756C379.026,-756 163.026,-756 163.026,-756 157.026,-756 151.026,-750 151.026,-744 151.026,-744 151.026,-732 151.026,-732 151.026,-726 157.026,-720 163.026,-720 163.026,-720 379.026,-720 379.026,-720 385.026,-720 391.026,-726 391.026,-732 391.026,-732 391.026,-744 391.026,-744 391.026,-750 385.026,-756 379.026,-756"/>
<text text-anchor="middle" x="271.026" y="-734.3" font-family="Times,serif" font-size="14.00" fill="#131c39">libsystemd0 237&#45;3ubuntu10.42</text>
</g>
<!-- pkg libsystemd0&#45;&gt;prog0 -->
<g id="edge39" class="edge">
<title>pkg libsystemd0&#45;&gt;prog0</title>
<path fill="none" stroke="#8888cc" d="M391.3004,-730.8772C440.4525,-732.698 496.3679,-741.1352 542.0519,-765 574.1834,-781.7851 580.2298,-793.9171 595.0519,-827 638.4748,-923.9201 662.8686,-1257.8013 669.3114,-1357.6052"/>
<polygon fill="#8888cc" stroke="#8888cc" points="665.8331,-1358.0598 669.9603,-1367.8176 672.819,-1357.6158 665.8331,-1358.0598"/>
</g>
<!-- pkg libtasn1&#45;6 -->
<g id="node40" class="node">
<title>pkg libtasn1&#45;6</title>
<path fill="#c9d2ed" stroke="#000000" d="M327.526,-702C327.526,-702 214.526,-702 214.526,-702 208.526,-702 202.526,-696 202.526,-690 202.526,-690 202.526,-678 202.526,-678 202.526,-672 208.526,-666 214.526,-666 214.526,-666 327.526,-666 327.526,-666 333.526,-666 339.526,-672 339.526,-678 339.526,-678 339.526,-690 339.526,-690 339.526,-696 333.526,-702 327.526,-702"/>
<text text-anchor="middle" x="271.026" y="-680.3" font-family="Times,serif" font-size="14.00" fill="#131c39">libtasn1&#45;6 4.13&#45;2</text>
</g>
<!-- pkg libtasn1&#45;6&#45;&gt;prog0 -->
<g id="edge32" class="edge">
<title>pkg libtasn1&#45;6&#45;&gt;prog0</title>
<path fill="none" stroke="#8888cc" d="M339.6103,-677.162C396.9401,-674.5335 479.184,-678.1586 542.0519,-711 574.1834,-727.7851 580.4249,-739.8304 595.0519,-773 642.3794,-880.3246 664.318,-1251.8463 669.6995,-1357.6695"/>
<polygon fill="#8888cc" stroke="#8888cc" points="666.215,-1358.0696 670.209,-1367.8828 673.2063,-1357.7208 666.215,-1358.0696"/>
</g>
<!-- pkg libtiff5 -->
<g id="node41" class="node">
<title>pkg libtiff5</title>
<path fill="#c9d2ed" stroke="#000000" d="M355.026,-648C355.026,-648 187.026,-648 187.026,-648 181.026,-648 175.026,-642 175.026,-636 175.026,-636 175.026,-624 175.026,-624 175.026,-618 181.026,-612 187.026,-612 187.026,-612 355.026,-612 355.026,-612 361.026,-612 367.026,-618 367.026,-624 367.026,-624 367.026,-636 367.026,-636 367.026,-642 361.026,-648 355.026,-648"/>
<text text-anchor="middle" x="271.026" y="-626.3" font-family="Times,serif" font-size="14.00" fill="#131c39">libtiff5 4.0.9&#45;5ubuntu0.3</text>
</g>
<!-- pkg libtiff5&#45;&gt;prog0 -->
<g id="edge5" class="edge">
<title>pkg libtiff5&#45;&gt;prog0</title>
<path fill="none" stroke="#8888cc" d="M367.2601,-622.4777C421.4417,-622.3052 488.719,-629.1395 542.0519,-657 574.1834,-673.7851 580.5892,-685.7584 595.0519,-719 646.2942,-836.7775 665.637,-1246.1833 670.0248,-1357.7397"/>
<polygon fill="#8888cc" stroke="#8888cc" points="666.5327,-1358.0132 670.414,-1367.8715 673.5275,-1357.7445 666.5327,-1358.0132"/>
</g>
<!-- pkg libunistring2 -->
<g id="node42" class="node">
<title>pkg libunistring2</title>
<path fill="#c9d2ed" stroke="#000000" d="M370.526,-594C370.526,-594 171.526,-594 171.526,-594 165.526,-594 159.526,-588 159.526,-582 159.526,-582 159.526,-570 159.526,-570 159.526,-564 165.526,-558 171.526,-558 171.526,-558 370.526,-558 370.526,-558 376.526,-558 382.526,-564 382.526,-570 382.526,-570 382.526,-582 382.526,-582 382.526,-588 376.526,-594 370.526,-594"/>
<text text-anchor="middle" x="271.026" y="-572.3" font-family="Times,serif" font-size="14.00" fill="#131c39">libunistring2 0.9.9&#45;0ubuntu2</text>
</g>
<!-- pkg libunistring2&#45;&gt;prog0 -->
<g id="edge31" class="edge">
<title>pkg libunistring2&#45;&gt;prog0</title>
<path fill="none" stroke="#8888cc" d="M382.5829,-568.6202C433.7473,-569.7466 493.6436,-577.7121 542.0519,-603 574.1834,-619.7851 580.7295,-631.6977 595.0519,-665 650.151,-793.1158 666.8072,-1239.6873 670.2886,-1357.3848"/>
<polygon fill="#8888cc" stroke="#8888cc" points="666.7998,-1357.8309 670.5852,-1367.7265 673.7969,-1357.6302 666.7998,-1357.8309"/>
</g>
<!-- pkg zlib1g -->
<g id="node43" class="node">
<title>pkg zlib1g</title>
<path fill="#c9d2ed" stroke="#000000" d="M375.026,-540C375.026,-540 167.026,-540 167.026,-540 161.026,-540 155.026,-534 155.026,-528 155.026,-528 155.026,-516 155.026,-516 155.026,-510 161.026,-504 167.026,-504 167.026,-504 375.026,-504 375.026,-504 381.026,-504 387.026,-510 387.026,-516 387.026,-516 387.026,-528 387.026,-528 387.026,-534 381.026,-540 375.026,-540"/>
<text text-anchor="middle" x="271.026" y="-518.3" font-family="Times,serif" font-size="14.00" fill="#131c39">zlib1g 1:1.2.11.dfsg&#45;0ubuntu2</text>
</g>
<!-- pkg zlib1g&#45;&gt;prog0 -->
<g id="edge12" class="edge">
<title>pkg zlib1g&#45;&gt;prog0</title>
<path fill="none" stroke="#8888cc" d="M387.2577,-514.7417C437.3668,-516.2453 495.1105,-524.4784 542.0519,-549 574.1834,-565.7851 580.8507,-577.6459 595.0519,-611 654.1087,-749.7052 667.9477,-1234.9131 670.5333,-1357.6314"/>
<polygon fill="#8888cc" stroke="#8888cc" points="667.036,-1357.8055 670.7376,-1367.7326 674.0345,-1357.6639 667.036,-1357.8055"/>
</g>
<!-- /etc/ld.so.cache -->
<g id="node44" class="node">
<title>/etc/ld.so.cache</title>
<ellipse fill="#c9d2ed" stroke="#000000" cx="271.026" cy="-468" rx="83.3857" ry="18"/>
<text text-anchor="middle" x="271.026" y="-464.3" font-family="Times,serif" font-size="14.00" fill="#131c39">/etc/ld.so.cache</text>
</g>
<!-- /etc/ld.so.cache&#45;&gt;prog0 -->
<g id="edge3" class="edge">
<title>/etc/ld.so.cache&#45;&gt;prog0</title>
<path fill="none" stroke="#8888cc" d="M347.4972,-460.8473C404.3028,-458.9189 482.0131,-463.6365 542.0519,-495 574.1834,-511.7851 580.9563,-523.6011 595.0519,-557 658.052,-706.2761 668.9954,-1229.9908 670.7416,-1357.7382"/>
<polygon fill="#8888cc" stroke="#8888cc" points="667.2437,-1357.9258 670.8719,-1367.88 674.2431,-1357.8358 667.2437,-1357.9258"/>
</g>
<!-- /etc/papersize -->
<g id="node45" class="node">
<title>/etc/papersize</title>
<ellipse fill="#c9d2ed" stroke="#000000" cx="271.026" cy="-414" rx="76.0865" ry="18"/>
<text text-anchor="middle" x="271.026" y="-410.3" font-family="Times,serif" font-size="14.00" fill="#131c39">/etc/papersize</text>
</g>
<!-- /etc/papersize&#45;&gt;prog0 -->
<g id="edge46" class="edge">
<title>/etc/papersize&#45;&gt;prog0</title>
<path fill="none" stroke="#8888cc" d="M341.3377,-407.0851C398.583,-404.6089 479.8127,-408.487 542.0519,-441 574.1834,-457.7851 581.0493,-469.562 595.0519,-503 628.7924,-583.5715 662.4749,-1215.992 669.6535,-1357.8318"/>
<polygon fill="#8888cc" stroke="#8888cc" points="666.1619,-1358.0887 670.1601,-1367.9002 673.153,-1357.7369 666.1619,-1358.0887"/>
</g>
<!-- /home/andy/pdf/lorem&#45;ipsum.pdf -->
<g id="node48" class="node">
<title>/home/andy/pdf/lorem&#45;ipsum.pdf</title>
<ellipse fill="#a3b4e0" stroke="#000000" cx="271.026" cy="-351" rx="175.2251" ry="26.7407"/>
<text text-anchor="middle" x="271.026" y="-354.8" font-family="Times,serif" font-size="14.00" fill="#131c39">arg</text>
<text text-anchor="middle" x="271.026" y="-339.8" font-family="Times,serif" font-size="14.00" fill="#131c39">/home/andy/pdf/lorem&#45;ipsum.pdf</text>
</g>
<!-- /home/andy/pdf/lorem&#45;ipsum.pdf&#45;&gt;prog0 -->
<g id="edge51" class="edge">
<title>/home/andy/pdf/lorem&#45;ipsum.pdf&#45;&gt;prog0</title>
<path fill="none" stroke="#8888cc" d="M444.682,-355.0183C478.407,-360.9738 512.4405,-370.9086 542.0519,-387 573.9042,-404.3092 581.1317,-415.5276 595.0519,-449 630.7808,-534.9129 663.1626,-1211.2867 669.809,-1357.9905"/>
<polygon fill="#8888cc" stroke="#8888cc" points="666.313,-1358.1592 670.2593,-1367.9916 673.3059,-1357.8443 666.313,-1358.1592"/>
</g>
<!-- /usr/share/ghostscript/9.26/iccprofiles/default_cmyk.icc -->
<g id="node49" class="node">
<title>/usr/share/ghostscript/9.26/iccprofiles/default_cmyk.icc</title>
<ellipse fill="#c9d2ed" stroke="#000000" cx="271.026" cy="-288" rx="271.0519" ry="18"/>
<text text-anchor="middle" x="271.026" y="-284.3" font-family="Times,serif" font-size="14.00" fill="#131c39">/usr/share/ghostscript/9.26/iccprofiles/default_cmyk.icc</text>
</g>
<!-- /usr/share/ghostscript/9.26/iccprofiles/default_cmyk.icc&#45;&gt;prog0 -->
<g id="edge49" class="edge">
<title>/usr/share/ghostscript/9.26/iccprofiles/default_cmyk.icc&#45;&gt;prog0</title>
<path fill="none" stroke="#8888cc" d="M504.3664,-297.2169C517.5298,-301.9981 530.2065,-307.8594 542.0519,-315 578.5789,-337.0191 581.198,-354.6623 595.0519,-395 658.6236,-580.0982 669.2067,-1215.2652 670.7928,-1357.561"/>
<polygon fill="#8888cc" stroke="#8888cc" points="667.294,-1357.6995 670.8992,-1367.662 674.2936,-1357.6257 667.294,-1357.6995"/>
</g>
<!-- /usr/share/ghostscript/9.26/iccprofiles/default_gray.icc -->
<g id="node50" class="node">
<title>/usr/share/ghostscript/9.26/iccprofiles/default_gray.icc</title>
<ellipse fill="#c9d2ed" stroke="#000000" cx="271.026" cy="-234" rx="265.6529" ry="18"/>
<text text-anchor="middle" x="271.026" y="-230.3" font-family="Times,serif" font-size="14.00" fill="#131c39">/usr/share/ghostscript/9.26/iccprofiles/default_gray.icc</text>
</g>
<!-- /usr/share/ghostscript/9.26/iccprofiles/default_gray.icc&#45;&gt;prog0 -->
<g id="edge47" class="edge">
<title>/usr/share/ghostscript/9.26/iccprofiles/default_gray.icc&#45;&gt;prog0</title>
<path fill="none" stroke="#8888cc" d="M498.6283,-243.3046C513.7255,-247.9576 528.3542,-253.7755 542.0519,-261 574.4167,-278.0699 581.2957,-290.0938 595.0519,-324 634.9223,-422.2721 664.3846,-1197.8059 670.0585,-1357.3594"/>
<polygon fill="#8888cc" stroke="#8888cc" points="666.5751,-1357.8946 670.4258,-1367.7649 673.5708,-1357.6477 666.5751,-1357.8946"/>
</g>
<!-- /usr/share/ghostscript/9.26/iccprofiles/default_rgb.icc -->
<g id="node51" class="node">
<title>/usr/share/ghostscript/9.26/iccprofiles/default_rgb.icc</title>
<ellipse fill="#c9d2ed" stroke="#000000" cx="271.026" cy="-180" rx="261.8535" ry="18"/>
<text text-anchor="middle" x="271.026" y="-176.3" font-family="Times,serif" font-size="14.00" fill="#131c39">/usr/share/ghostscript/9.26/iccprofiles/default_rgb.icc</text>
</g>
<!-- /usr/share/ghostscript/9.26/iccprofiles/default_rgb.icc&#45;&gt;prog0 -->
<g id="edge48" class="edge">
<title>/usr/share/ghostscript/9.26/iccprofiles/default_rgb.icc&#45;&gt;prog0</title>
<path fill="none" stroke="#8888cc" d="M497.1109,-189.1364C512.7291,-193.7993 527.877,-199.6676 542.0519,-207 573.9516,-223.5011 581.3442,-234.804 595.0519,-268 637.7863,-371.4897 665.1208,-1192.9418 670.1945,-1357.3984"/>
<polygon fill="#8888cc" stroke="#8888cc" points="666.7047,-1357.789 670.5089,-1367.6773 673.7014,-1357.5749 666.7047,-1357.789"/>
</g>
<!-- /usr/share/ghostscript/9.26/iccprofiles/lab.icc -->
<g id="node52" class="node">
<title>/usr/share/ghostscript/9.26/iccprofiles/lab.icc</title>
<ellipse fill="#c9d2ed" stroke="#000000" cx="271.026" cy="-126" rx="222.0608" ry="18"/>
<text text-anchor="middle" x="271.026" y="-122.3" font-family="Times,serif" font-size="14.00" fill="#131c39">/usr/share/ghostscript/9.26/iccprofiles/lab.icc</text>
</g>
<!-- /usr/share/ghostscript/9.26/iccprofiles/lab.icc&#45;&gt;prog0 -->
<g id="edge50" class="edge">
<title>/usr/share/ghostscript/9.26/iccprofiles/lab.icc&#45;&gt;prog0</title>
<path fill="none" stroke="#8888cc" d="M483.9003,-131.3285C504.1872,-136.4904 523.925,-143.5307 542.0519,-153 574.1834,-169.7851 581.4019,-181.4165 595.0519,-215 639.3386,-323.9599 665.5693,-1189.2173 670.2822,-1357.6432"/>
<polygon fill="#8888cc" stroke="#8888cc" points="666.7855,-1357.8149 670.5615,-1367.714 673.7829,-1357.6208 666.7855,-1357.8149"/>
</g>
<!-- /var/lib/ghostscript/fonts/Fontmap -->
<g id="node53" class="node">
<title>/var/lib/ghostscript/fonts/Fontmap</title>
<ellipse fill="#c9d2ed" stroke="#000000" cx="271.026" cy="-72" rx="169.77" ry="18"/>
<text text-anchor="middle" x="271.026" y="-68.3" font-family="Times,serif" font-size="14.00" fill="#131c39">/var/lib/ghostscript/fonts/Fontmap</text>
</g>
<!-- /var/lib/ghostscript/fonts/Fontmap&#45;&gt;prog0 -->
<g id="edge45" class="edge">
<title>/var/lib/ghostscript/fonts/Fontmap&#45;&gt;prog0</title>
<path fill="none" stroke="#8888cc" d="M437.687,-68.6406C473.614,-73.2811 510.3036,-82.4151 542.0519,-99 574.1834,-115.7851 581.4498,-127.3971 595.0519,-161 641.3309,-275.3284 666.0652,-1184.8976 670.3702,-1357.706"/>
<polygon fill="#8888cc" stroke="#8888cc" points="666.8734,-1357.882 670.619,-1367.7926 673.8713,-1357.7093 666.8734,-1357.882"/>
</g>
<!-- /var/lib/ghostscript/fonts/cidfmap -->
<g id="node54" class="node">
<title>/var/lib/ghostscript/fonts/cidfmap</title>
<ellipse fill="#c9d2ed" stroke="#000000" cx="271.026" cy="-18" rx="166.2706" ry="18"/>
<text text-anchor="middle" x="271.026" y="-14.3" font-family="Times,serif" font-size="14.00" fill="#131c39">/var/lib/ghostscript/fonts/cidfmap</text>
</g>
<!-- /var/lib/ghostscript/fonts/cidfmap&#45;&gt;prog0 -->
<g id="edge44" class="edge">
<title>/var/lib/ghostscript/fonts/cidfmap&#45;&gt;prog0</title>
<path fill="none" stroke="#8888cc" d="M433.7774,-14.1529C470.9435,-18.6277 509.151,-27.813 542.0519,-45 574.1834,-61.7851 581.4936,-73.3794 595.0519,-107 643.3334,-226.7243 666.5451,-1181.0114 670.4526,-1357.859"/>
<polygon fill="#8888cc" stroke="#8888cc" points="666.9549,-1358.0088 670.6727,-1367.9299 673.9533,-1357.8557 666.9549,-1358.0088"/>
</g>
</g>
</svg>
